<?xml version="1.0" encoding="UTF-8"?><svg id="Layer_1" xmlns="http://www.w3.org/2000/svg" viewBox="0 0 651.78 181.48"><path d="M85.65-.29l53.8,143.6h-29.8l-11.4-30.8H39.05l-11.4,30.8H-1.55L52.05-.29h33.6ZM48.25,87.51h40.6l-20.4-55.2-20.2,55.2Z"/><path d="M179.05,143.31h-28V-.29h28V143.31Z"/><path d="M230.05,143.31h-28V-.29h28V143.31Z"/><path d="M246.85,90.71c0-31,21.4-54.6,51.2-54.6s48,23.2,48,52.6v8.2h-72.4c2,16,11.8,25.6,25.6,25.6,10.8,0,19.4-5.2,22.6-15.4l23.6,8.4c-7.6,19.2-25.4,30-46.4,30-31,0-52.2-22.2-52.2-54.8Zm27.8-12.8h43.6c-.2-10.4-6.8-19.4-20.4-19.4-11.2,0-19.8,6.6-23.2,19.4Z"/><path d="M406.64,181.11c-25.4,0-43-10.4-49-31l26.2-7.6c3,10.4,11.2,16.8,23.2,16.8,14.6,0,24.8-7.2,24.8-24.6v-7.2c-5.4,7.2-16,12.8-29.2,12.8-28.8,0-45.6-23.4-45.6-52.2s16.8-52,45.6-52c13,0,23.8,5.6,29.2,12.8v-10.8h28v93.6c0,31.8-22,49.4-53.2,49.4Zm2.6-121.4c-15.2,0-23.8,10.8-23.8,28.4s8.6,28.6,23.8,28.6c13.4,0,22.8-9.8,22.8-27v-2.8c0-17.4-9.4-27.2-22.8-27.2Z"/><path d="M545.84,65.31c-3.2-.4-5.6-.6-9-.6-14.6,0-25.8,9-25.8,25.2v53.4h-28V38.11h28v14.8c4.6-9.2,15-15.4,28-15.4,2.8,0,4.8,.2,6.8,.4v27.4Z"/><path d="M551.25,114.11c0-21,16.8-29.8,38-33.6l26.2-5v-1.6c0-9-4.6-14.6-16.2-14.6-10.4,0-15.8,4.6-18.2,14l-26.6-5c4.8-17.8,20.8-32.2,45.8-32.2,26.6,0,42.6,12.2,42.6,36.6v43c0,5.6,2.4,7.4,8.6,6.6v21c-17.8,2.6-28.6-1-33.2-9.8-6.8,7.4-17.4,11.6-31.2,11.6-20.6,0-35.8-12.4-35.8-31Zm64.2-19l-20.6,4.2c-9.2,1.8-16,4.8-16,13.2,0,7.2,5.4,11.4,13.8,11.4,11.8,0,22.8-6.2,22.8-18v-10.8Z"/></svg>